# xmcd
#
# Track frame offsets: 
#        225
#        18361
#        31363
#        44585
#        55661
#        68792
#        81547
#        91523
#        101993
#        122056
#        139597
#        156622
#        169726
#        184738
#        197340
#        208883
#        227427
#        248876
#        264843
#
# Disc length: 3741 seconds
#
# Revision: 0
# Processed by: cddbd v1.5.2PL0 Copyright (c) Steve Scherf et al.
# Submitted via: ExactAudioCopy v1.0b1
#
DISCID=050e9a13
DTITLE=The Anthology - Peter Green The Anthology
DYEAR=2008
DGENRE=Blues
TTITLE0=Evil Woman Blues 
TTITLE1=The Stumble King
TTITLE2=Sitting in the Rain
TTITLE3=The World Keep on Turning 
TTITLE4=The Supernatural 
TTITLE5=Looking for Somebody
TTITLE6=Long Grey Mare
TTITLE7=Stop Messin' Around 
TTITLE8=The Train Is Comin'
TTITLE9=Greeny 
TTITLE10=Soul Dressing 
TTITLE11=I Loved Another Woman 
TTITLE12=No Place to Go 
TTITLE13=You Don't Love Me
TTITLE14=Lazy Poker Blues
TTITLE15=Merry Go Round 
TTITLE16=Trying So Hard to Forget
TTITLE17=Ramblin' Pony
TTITLE18=Drifting
EXTD=
EXTT0=
EXTT1=
EXTT2=
EXTT3=
EXTT4=
EXTT5=
EXTT6=
EXTT7=
EXTT8=
EXTT9=
EXTT10=
EXTT11=
EXTT12=
EXTT13=
EXTT14=
EXTT15=
EXTT16=
EXTT17=
EXTT18=
PLAYORDER=
